<?xml version="1.0" encoding="UTF-8"?>
<svg id="LF-Energy-OpenSynth-Logo" xmlns="http://www.w3.org/2000/svg" viewBox="0 0 93.98 93.98">
  <defs>
    <style>
      .cls-1 {
        fill: #fff;
        stroke-width: 0px;
      }
    </style>
  </defs>
  <g>
    <polygon class="cls-1" points="62.65 0 75.18 0 81.45 5.22 93.98 5.22 93.98 15.66 81.45 15.66 75.18 10.44 62.65 10.44 62.65 0"/>
    <polygon class="cls-1" points="31.33 0 43.86 0 50.12 5.22 62.65 5.22 62.65 15.66 50.12 15.66 43.86 10.44 31.33 10.44 31.33 0"/>
    <polygon class="cls-1" points="0 0 12.53 0 18.8 5.22 31.33 5.22 31.33 15.66 18.8 15.66 12.53 10.44 0 10.44 0 0"/>
  </g>
  <g>
    <polygon class="cls-1" points="62.65 15.66 75.18 15.66 81.45 20.88 93.98 20.88 93.98 31.33 81.45 31.33 75.18 26.11 62.65 26.11 62.65 15.66"/>
    <polygon class="cls-1" points="31.33 15.66 43.86 15.66 50.12 20.88 62.65 20.88 62.65 31.33 50.12 31.33 43.86 26.11 31.33 26.11 31.33 15.66"/>
    <polygon class="cls-1" points="0 15.66 12.53 15.66 18.8 20.88 31.33 20.88 31.33 31.33 18.8 31.33 12.53 26.11 0 26.11 0 15.66"/>
  </g>
  <g>
    <polygon class="cls-1" points="62.65 31.33 75.18 31.33 81.45 36.55 93.98 36.55 93.98 46.99 81.45 46.99 75.18 41.77 62.65 41.77 62.65 31.33"/>
    <polygon class="cls-1" points="31.33 31.33 43.86 31.33 50.12 36.55 62.65 36.55 62.65 46.99 50.12 46.99 43.86 41.77 31.33 41.77 31.33 31.33"/>
    <polygon class="cls-1" points="0 31.33 12.53 31.33 18.8 36.55 31.33 36.55 31.33 46.99 18.8 46.99 12.53 41.77 0 41.77 0 31.33"/>
  </g>
  <g>
    <polygon class="cls-1" points="62.65 46.99 75.18 46.99 81.45 52.21 93.98 52.21 93.98 62.65 81.45 62.65 75.18 57.43 62.65 57.43 62.65 46.99"/>
    <polygon class="cls-1" points="31.33 46.99 43.86 46.99 50.12 52.21 62.65 52.21 62.65 62.65 50.12 62.65 43.86 57.43 31.33 57.43 31.33 46.99"/>
    <polygon class="cls-1" points="0 46.99 12.53 46.99 18.8 52.21 31.33 52.21 31.33 62.65 18.8 62.65 12.53 57.43 0 57.43 0 46.99"/>
  </g>
  <g>
    <polygon class="cls-1" points="62.65 62.65 75.18 62.65 81.45 67.87 93.98 67.87 93.98 78.32 81.45 78.32 75.18 73.1 62.65 73.1 62.65 62.65"/>
    <polygon class="cls-1" points="31.33 62.65 43.86 62.65 50.12 67.87 62.65 67.87 62.65 78.32 50.12 78.32 43.86 73.1 31.33 73.1 31.33 62.65"/>
    <polygon class="cls-1" points="0 62.65 12.53 62.65 18.8 67.87 31.33 67.87 31.33 78.32 18.8 78.32 12.53 73.1 0 73.1 0 62.65"/>
  </g>
  <g>
    <polygon class="cls-1" points="62.65 78.32 75.18 78.32 81.45 83.54 93.98 83.54 93.98 93.98 81.45 93.98 75.18 88.76 62.65 88.76 62.65 78.32"/>
    <polygon class="cls-1" points="31.33 78.32 43.86 78.32 50.12 83.54 62.65 83.54 62.65 93.98 50.12 93.98 43.86 88.76 31.33 88.76 31.33 78.32"/>
    <polygon class="cls-1" points="0 78.32 12.53 78.32 18.8 83.54 31.33 83.54 31.33 93.98 18.8 93.98 12.53 88.76 0 88.76 0 78.32"/>
  </g>
</svg>