<?xml version="1.0" encoding="utf-8"?>
<!-- Generator: Adobe Illustrator 28.4.1, SVG Export Plug-In . SVG Version: 6.00 Build 0)  -->
<svg version="1.1" id="Layer_1" xmlns="http://www.w3.org/2000/svg" xmlns:xlink="http://www.w3.org/1999/xlink" x="0px" y="0px"
	 width="583.8px" height="115.4px" viewBox="0 0 583.8 115.4" style="enable-background:new 0 0 583.8 115.4;" xml:space="preserve"
	>
<style type="text/css">
	.Drop_x0020_Shadow{fill:none;}
	.Round_x0020_Corners_x0020_2_x0020_pt{fill:#FFFFFF;stroke:#231F20;stroke-miterlimit:10;}
	.Live_x0020_Reflect_x0020_X{fill:none;}
	.Bevel_x0020_Soft{fill:url(#SVGID_1_);}
	.Dusk{fill:#FFFFFF;}
	.Foliage_GS{fill:#FFDD00;}
	.Pompadour_GS{fill-rule:evenodd;clip-rule:evenodd;fill:#44ADE2;}
	.st0{fill:#FDFCCF;}
	.st1{fill:#FDD0A4;}
	.st2{fill:#DAB991;}
	.st3{fill:#87D6BE;}
	.st4{fill:#79C0AB;}
	.st5{fill:#091A28;}
	.st6{fill:#FFFFFF;}
</style>
<linearGradient id="SVGID_1_" gradientUnits="userSpaceOnUse" x1="-72.9154" y1="-241.1383" x2="-72.2083" y2="-240.4312">
	<stop  offset="0" style="stop-color:#DEDFE3"/>
	<stop  offset="0.1783" style="stop-color:#DADBDF"/>
	<stop  offset="0.3611" style="stop-color:#CECFD3"/>
	<stop  offset="0.546" style="stop-color:#B9BCBF"/>
	<stop  offset="0.7324" style="stop-color:#9CA0A2"/>
	<stop  offset="0.9181" style="stop-color:#787D7E"/>
	<stop  offset="1" style="stop-color:#656B6C"/>
</linearGradient>
<g>
	<g id="g1" transform="translate(-92.473222,-129.48373)">
		<g id="g2">
			<path id="path7" class="st0" d="M208.9,174.6l-0.4,0.2c-4.6,2.4-8.4,8.2-9,13.7c-0.2,1.9-0.8,3.1-2,4c-1.2,0.9-1.8,1.1-3.4,1.1
				c-1.4,0-1.5,0-2.2-0.4c-3.1-1.8-3.5-5-1.3-9.4c0.5-0.9,1.2-2.3,1.7-3s0.8-1.3,0.8-1.3c-0.1-0.1-1.7,0.4-2.9,0.9
				c-5.5,2.4-10.5,6.5-14.6,11.8c-4.7,6.1-7.1,11.7-8.7,20c-0.4,1.9-0.5,5.3-0.3,7.2c0.3,2.4,1,4.7,2.1,6.2c1.2,1.7,3.1,3,4.8,3.2
				c1.4,0.2,78.8,0.2,80.2,0c1.3-0.2,1.9-0.4,3.1-1.1c0.8-0.5,2.4-2.1,2.3-2.3c0-0.1,0-0.1,0-0.1c0.3,0,1.7-3.2,1.5-3.6
				c0-0.1,0-0.2,0-0.2c0.2-0.1,0.4-2.6,0.4-4.5c0-6.6-2.8-15.3-6.8-21.4c-1.4-2.1-3.6-4.9-3.9-4.9c-0.1,0-0.2-0.1-0.1-0.2
				c0.1-0.2-2.8-3.1-4.5-4.4c-1.6-1.3-3.7-2.7-5.1-3.5c-2.2-1.2-6.6-3.1-6.8-2.9c0,0,0,0.2,0.2,0.4c1.9,2.4,3.5,5.4,3.9,7.7
				c0.4,1.9,0,3.2-1.2,4.4c-2.2,2.2-5.4,2.3-7.5,0.2c-1-1-1.4-1.9-1.5-3.4c-0.1-1.6-0.2-1.8-0.6-3.2c-1.2-3.7-2.6-6.2-4.7-8.3
				c-1.1-1.2-3-2.5-3.5-2.5c-0.2,0-0.2,0.5-0.2,7.2c0,4-0.1,7.5-0.1,7.9c-0.5,2.5-3.3,4.2-6,3.7c-1-0.2-1.6-0.6-2.6-1.5
				c-1.3-1.3-1.2-0.9-1.2-9.8L208.9,174.6z M226.6,184.5c0,0,0.1,0.1,0.1,0.3c0,0.2,0.1,0.4,0,0.4c0,0-0.1-0.1-0.1-0.3
				C226.5,184.8,226.5,184.6,226.6,184.5z M232.7,198.3c2.7,0,5.6,1.5,7,3.6c1.6,2.4,1.3,4.3-1,5.5c-1.5,0.7-2.8,0.7-4.6-0.2
				c-0.9-0.5-1.4-0.5-2.2-0.1c-2.4,1.1-4.3,1-6-0.4c-0.9-0.7-1.2-1.3-1.2-2.3c0-2.3,3.7-5.5,6.9-5.9
				C231.9,198.3,232.3,198.3,232.7,198.3z M190.5,198.3c0.7-0.1,1.3,0,2,0.1c2.6,0.5,5.1,2.3,6.1,4.3c0.9,1.8,0.8,2.6-0.5,3.7
				c-1.3,1.1-3.5,1.6-4.9,1c-0.4-0.2-1-0.4-1.3-0.5c-0.6-0.2-0.7-0.3-1.3-0.1c-0.3,0.1-1,0.4-1.5,0.6c-0.7,0.3-1.1,0.4-2,0.4
				c-1.3,0-1.9-0.1-2.8-0.9c-1.8-1.5-1.5-3.7,0.6-5.9C186.6,199.5,188.5,198.5,190.5,198.3z"/>
			<path id="path6" class="st1" d="M121.6,197.7C121.4,197.5,121.4,197.4,121.6,197.7c0.2,0,0.3,0.2,0.3,0.2
				C121.9,197.9,121.7,197.9,121.6,197.7L121.6,197.7z M133.1,193.8c-1.8-0.1-2.8-0.3-4-1.1c-1.8-1-3.5-3.3-4.3-5.7
				c-1.4-4-0.6-10.8,2.1-18.1c1.1-2.9,2.6-6.3,2.9-6.3c0.1,0,0.1-0.1,0-0.1c0-0.1,0-0.1,0.1-0.1s0.1-0.1,0.1-0.1
				c0-0.1,0-0.2,0.2-0.4s0.2-0.3,0.3-0.4c0.1-0.3,1.3-2.1,2.7-4c4.1-5.5,8.7-9.4,14.4-12.3c1.9-1,4.8-2,4.8-1.8
				c0,0.1-0.1,0.3-0.3,0.5c-0.9,1.1-2.5,4.3-3.1,5.7c-1.4,3.7-1.2,6.1,0.6,8c1,1,2.3,1.6,3.9,1.5c1.3-0.1,2.3-0.5,3.3-1.5
				c1-1,1.3-1.7,1.3-3.1c0-2,0.8-5,2.1-7.8c0.9-2,1.9-3.3,3.2-4.7c1.1-1.1,3.1-2.5,3.3-2.4c0.1,0,0.1,3.5,0.1,7.8
				c0,4.2,0.1,8,0.1,8.3c0.3,1.2,1.3,2.3,2.6,3c0.4,0.2,0.9,0.3,1.8,0.3c1.2,0,1.3,0,2.1-0.3c1.3-0.6,2.2-1.4,2.6-2.2l0.3-0.7l0-7.9
				c0-4.4,0.1-8,0.1-8c0.2-0.2,2.3,1.4,3.6,2.7c1.7,1.7,2.8,3.3,4,6c0.4,1,1.1,3,1.4,4c0.1,0.4,0.2,1.2,0.2,1.9c0,1.1,0.1,1.4,0.4,2
				c0.2,0.4,0.7,1.1,1.2,1.6c0.8,0.8,0.8,0.8,1.9,1.1c1.2,0.3,1.8,0.3,3.2-0.2c1.7-0.6,3-2.2,3.2-4c0.2-1.5-0.7-4.7-1.8-6.9
				c-0.6-1.1-1.5-2.7-2.2-3.6c-0.4-0.5-0.6-1-0.3-1c0.1,0,0.3,0.1,0.5,0.2c0.2,0.1,0.7,0.3,1.2,0.5c3.4,1.4,8,4.2,10.7,6.6
				c1.8,1.6,4.4,4.2,4.8,4.9c0.3,0.4,0.3,0.5,0,0.8c-0.4,0.5-2,3.7-3.5,6.6c-1,2-1.4,2.7-1.6,2.7c-0.6,0-3.8,0.7-7.3,1.7
				c-0.4,0.1-0.8,0.2-0.8,0.2c0,0-0.3-0.5-0.7-1.1c-0.8-1.2-1.8-2.1-3.1-2.8c-1.6-0.9-2.2-1-4.3-1c-1.6,0-2,0-2.7,0.3
				c-2.4,0.8-4.7,2.9-5.4,4.7c-0.5,1.2-0.3,2.1,0.5,3c0.9,1,2.2,1.3,4.7,1.1l0.6-0.1l-0.3,0.3c-0.4,0.3-2.2,1.5-3.1,2
				c-0.8,0.5-2.2,1.5-4,2.9c-1.7,1.4-6.6,6.1-8,7.8c-1.5,1.7-3.9,5-4.9,6.6c-0.5,0.9-1,1.6-1.1,1.6c-0.1,0-0.1,0.1,0,0.2
				s0,0.2-0.2,0.4l-0.2,0.3l-14.2,0C141.2,193.9,134,193.9,133.1,193.8L133.1,193.8z M145.2,172c0.4-0.1,1.1-0.4,1.7-0.7
				c0.5-0.3,1.2-0.5,1.4-0.5c0.3,0,0.9,0.2,1.7,0.6c1.1,0.5,1.4,0.6,2.2,0.7c1.7,0.1,3.3-0.6,4.2-2c0.6-0.9,0.6-1.7,0-2.8
				c-1.3-2.6-4.1-4.4-7.3-4.7c-2.5-0.2-5.6,1.2-7.5,3.5c-1.3,1.6-1.8,2.9-1.4,4c0.3,0.8,1.3,1.7,2.1,1.9c0.3,0.1,0.6,0.2,0.7,0.2
				C143.4,172.2,144.6,172.1,145.2,172L145.2,172z"/>
			<path id="path5" class="st2" d="M99.1,216.6C99,216.4,99,216.4,99.1,216.6c0.3,0.1,0.3,0.2,0.2,0.2
				C99.3,216.8,99.2,216.7,99.1,216.6L99.1,216.6z M263.1,191.8c-1.4-2-2.7-3.8-3.7-5.1c-0.4-0.5-0.9-0.8-0.9-0.9
				c-0.2-0.3-0.3-0.5-0.7-0.8l-2.9-3.1c-0.9-0.9-1.6-1.6-2.5-2.4c-3-2.7-8.7-7.1-10.4-8c-0.5-0.3-0.5-0.5,0-0.7
				c0.5-0.2,0.9-0.2,2.3,0.3c0.8,0.3,1.1,0.5,2.1,0.5c0.9,0,1.2-0.1,1.9-0.3c1.6-0.7,2.5-2,2.2-3.3c-0.3-1.5-2-3.3-3.9-4.3
				c-1.9-0.9-2.4-1-4.2-1c-2.6,0-4.2,0.6-6.3,2.2c-1,0.8-1.7,1.6-2.2,2.6c-0.1,0.2-0.3,0.4-0.4,0.4c-0.1,0-0.8-0.2-1.5-0.4
				c-4.7-1.5-10.3-2.5-15.7-2.8c-1.9-0.1-1.8-0.1-1.5-0.6c0.1-0.2,0.6-1.1,1-1.9c2.3-4.3,4.7-7.4,8.2-10.8c2.9-2.8,5.8-4.9,9-6.5
				c2-1,5.5-2.2,5.7-2c0,0-0.1,0.3-0.4,0.6c-2.5,3.1-4.4,7.1-4.6,9.8c-0.1,1.8,0.3,2.9,1.4,4c1.7,1.7,4,2.2,5.9,1.2
				c1.1-0.6,2.1-1.5,2.5-2.3c0.3-0.7,0.3-0.8,0.3-1.7c-0.1-1.2,0.1-2.3,0.9-4.7c1.3-3.7,2.6-6,4.8-8.1c1.2-1.2,2.8-2.3,3-2.3
				c0.1,0,0.2,1.8,0.2,8.1c0,9.2-0.1,8.6,1.2,9.8c1.2,1.1,2.7,1.7,3.9,1.5c1.2-0.2,2.7-1,3.5-1.8c0.9-1,0.9-0.9,0.9-5.1
				c0-2.1,0-5.6-0.1-7.9c-0.1-2.3-0.1-4.3,0-4.3c0.1-0.2,0.8,0.2,1.9,1c2.7,2,4.8,4.4,6,7.5c0.9,2.2,1.3,4.4,1.4,6.2
				c0.1,1.6,0,1.3,0.6,2.1c1.1,1.5,2.7,2.4,4.5,2.3c2.4-0.2,4.7-2.1,4.9-4.3c0.2-2.4-1.8-7.1-4.5-10.2c-0.4-0.5-0.7-0.9-0.7-1
				c0-0.4,3.3,0.8,5.5,1.9c2.8,1.4,6.6,4.1,9.3,6.5c2,1.8,4.5,4.6,6.1,7c4.8,6.7,7.2,14.1,7.2,22.4c0,3.5-0.2,4.8-1.1,7
				c-0.6,1.5-1.4,2.7-2.4,3.6c-1,1-2,1.5-3.3,1.9l-1,0.5l-15.8,0.1l-16-0.2C263.6,192.9,264.2,193.3,263.1,191.8L263.1,191.8z
				 M288.1,171.8c1.2-0.5,2.2-1.8,2.2-2.9c0-0.8-0.8-2.3-1.8-3.5c-1.7-2-4.1-2.5-6.9-2.5c-2.5,0-5.2,1.5-6.7,3.6
				c-0.7,0.9-1.3,1.6-1.3,2.1c0,1,0.8,2.1,2,2.6c1.4,0.6,2.6,0.7,4.7-0.3c1.3-0.6,1.8-0.6,3.1,0.1
				C285.3,172.1,286.8,172.3,288.1,171.8L288.1,171.8z"/>
			<path id="path4" class="st3" d="M264.6,233.6c0.2-0.3,0.5-0.7,0.7-0.9c0.5-0.6,0.5-0.6,0.7-1c0.1-0.2,0.2-0.4,0.3-0.4
				c0.1,0,0.1-0.1,0.1-0.2c0-0.1,0.1-0.3,0.3-0.6s0.3-0.5,0.3-0.6s0.1-0.2,0.2-0.3c0.2-0.2,1.9-3.7,1.9-3.9c0-0.1,0.1-0.3,0.2-0.4
				s0.1-0.2,0-0.2c-0.1,0,0-0.1,0.1-0.2s0.1-0.2,0.1-0.2c0,0,0-0.2,0.1-0.5c0.1-0.3,0.2-0.5,0.1-0.5c0,0,0-0.1,0.1-0.2
				c0.1-0.1,0.2-0.4,0.2-0.7c0.1-0.4,0.1-0.7,0.3-1.4c0-0.2,0.1-0.6,0.1-0.9s0.1-0.7,0.2-0.7c0.2-0.2,26.2-16.4,27.1-16.9
				c0.3-0.2,0.9-0.4,1.4-0.6c0.9-0.3,3.2-1.4,3.3-1.6c0-0.1,0.1-0.1,0.2-0.1c0.1,0,0.6-0.3,1.3-0.9c0.1-0.1,0.2-0.1,0.4-0.2
				s0.2-0.1,0.2-0.2s0.1-0.1,0.2-0.1c0.2,0,1-0.8,1.7-1.5c0.2-0.2,0.6-0.7,0.9-1s0.7-0.8,0.9-1c0.2-0.2,0.5-0.6,0.7-0.8
				c0.2-0.2,0.4-0.5,0.4-0.7s0.1-0.2,0.2-0.2c0.1,0,0.1-0.1,0.1-0.2s0.1-0.2,0.1-0.2s0.1-0.1,0.1-0.2c0-0.1,0.1-0.3,0.3-0.5
				c0.1-0.2,0.3-0.5,0.4-0.7c0.1-0.2,0.2-0.4,0.3-0.4s0.1-0.1,0-0.1s0-0.1,0.1-0.1c0.1,0,0.1,0,0.1-0.1c0,0,0-0.2,0.1-0.3
				c0.1-0.1,0.2-0.2,0.1-0.3s0-0.1,0.1-0.1c0.1,0,0.1-0.1,0.1-0.1c0-0.1,0-0.2,0.1-0.3c0.1-0.1,0.2-0.2,0.1-0.2s0-0.1,0.1-0.2
				s0.1-0.2,0.1-0.3c0,0,0-0.1,0.1-0.1s0.1,0,0.1-0.1c0-0.1,0.1-0.3,0.1-0.5c0.1-0.2,0.2-0.5,0.2-0.6c0-0.1,0.1-0.2,0.1-0.2
				c0,0,0-0.1,0.1-0.1s0.1-0.2,0.1-0.3c0.1-0.1,0.1-0.3,0.1-0.5c0-0.1,0.1-0.3,0.1-0.3s0-0.1,0.1-0.2c0-0.1,0-0.2,0.1-0.2
				c0,0,0-0.1,0.1-0.2c0-0.1,0-0.1,0.1-0.2c0,0,0-0.1,0.1-0.2s0.1-0.3,0.1-0.5c0.2-0.8,0.2-0.9,0.3-1.2c0-0.2,0.1-0.4,0.1-0.6
				c0-0.1,0.1-0.3,0.1-0.3s0.1-0.3,0.1-0.5c0-0.5,0.1-0.7,0.3-0.5c0.1,0.1,0.4,0.2,0.7,0.3c0.9,0.3,6,2.9,7.8,3.9
				c4.1,2.5,6.4,4.1,8.6,6.3c1.8,1.8,3.3,3.9,3.8,5.2c0.2,0.4,0.3,0.9,0.4,1c0,0.1,0.1,0.2,0.1,0.3c0.5,2.1,0.5,2.2,0.3,4.1
				c0,0.3-0.1,0.5-0.1,0.7s-0.1,0.3-0.1,0.4c-0.1,0.1-0.1,0.2,0,0.3c0,0.1,0,0.2-0.1,0.2c-0.1,0-0.1,0.1-0.1,0.2
				c0,0.1,0,0.1-0.1,0.1c-0.1,0-0.1,0.1-0.1,0.1c0,0.2-0.7,1.7-0.9,2c-0.1,0.1-0.5,0.7-0.9,1.2c-1.1,1.6-1.8,2.4-3.8,4.1
				c-0.6,0.5-1.1,1-1.1,1.1c0,0.1-0.1,0.1-0.2,0.1c-0.1,0-0.2,0.1-0.3,0.2c-0.1,0.1-0.3,0.3-0.4,0.4c-0.2,0.1-0.5,0.3-0.6,0.5
				c-0.7,0.6-4.3,2.9-4.5,2.9c-0.1,0-0.1,0-0.1,0.1c0,0.1-0.2,0.2-0.4,0.3c-0.2,0.1-0.5,0.2-0.7,0.4c-0.3,0.2-4.4,2.3-5.4,2.7
				c-0.4,0.2-0.8,0.4-0.8,0.4c-0.1,0.1-0.1,0.1-0.1,0c0-0.1-0.2,0-0.4,0.1c-0.2,0.1-0.5,0.2-0.6,0.3s-0.5,0.2-1,0.4
				c-0.8,0.4-1.2,0.5-1.4,0.6c-0.1,0-0.2,0.1-0.4,0.2c-0.1,0.1-0.3,0.1-0.4,0.1c-0.1,0-0.1,0-0.1,0.1s0,0.1-0.1,0.1
				c0,0-0.2,0-0.3,0.1c-0.1,0.1-0.2,0.1-0.2,0.1c0,0-0.1,0-0.3,0.1c-0.2,0.1-0.3,0.2-0.4,0.2s-0.1,0-0.2,0.1
				c-0.1,0.1-0.2,0.1-0.3,0.1c-0.1,0-0.3,0.1-0.5,0.2c-0.2,0.1-0.4,0.2-0.5,0.2s-0.1,0-0.2,0.1c0,0-0.1,0-0.2,0.1
				c-0.1,0-0.2,0.1-0.3,0.1c-0.1,0.1-0.2,0.1-0.2,0c0-0.1-1,0.3-2.1,0.7c-0.1,0-0.2,0.1-0.3,0.1c-0.1,0-0.1,0-0.2,0.1
				c0,0-0.1,0-0.2,0.1s-0.1,0-0.2,0.1c0,0-0.2,0.1-0.4,0.1s-0.4,0.1-0.5,0.1c-0.1,0-0.2,0.1-0.3,0.1s-0.1,0-0.1,0.1
				c0,0-0.2,0.1-0.4,0.1c-0.2,0-0.4,0.1-0.5,0.1c-0.2,0.1-0.4,0.1-0.8,0.2c-0.1,0-0.2,0.1-0.3,0.1c0,0-0.1,0-0.2,0.1
				c-0.1,0-0.1,0-0.2,0.1s-0.2,0.1-0.4,0.1c-0.2,0-0.5,0.1-0.6,0.2s-0.2,0.1-0.2,0.1s-0.2,0-0.4,0.1c-0.2,0.1-0.5,0.2-0.6,0.2
				c-0.5,0.1-0.7,0.2-0.7,0.2c0,0-0.1,0-0.8,0.2c-0.3,0.1-0.6,0.1-0.7,0.2c-0.1,0-0.2,0.1-0.3,0.1c-0.3,0.1-0.6,0.1-0.6,0.2
				c0,0-0.1,0-0.2,0.1c-0.1,0-0.3,0.1-0.5,0.1c-0.2,0-0.4,0.1-0.6,0.1c-0.2,0-0.4,0.1-0.5,0.1s-0.2,0.1-0.2,0.1c0,0-0.2,0-0.4,0.1
				c-0.2,0-0.6,0.1-0.9,0.2c-0.3,0.1-0.6,0.2-0.7,0.2c-0.3,0.1-0.8,0.2-1.1,0.3c-0.2,0-0.5,0.1-0.7,0.1c-0.6,0.2-0.7,0.2-1,0.2
				c-0.1,0-0.4,0.1-0.6,0.1c-0.2,0-0.4,0.1-0.6,0.1s-0.4,0.1-0.6,0.1c-0.2,0-0.5,0.1-0.7,0.1c-0.4,0.1-0.8,0.1-1.2,0.2
				c-0.2,0-0.5,0.1-0.7,0.1c-0.2,0-0.5,0.1-0.7,0.1c-0.2,0-0.5,0.1-0.7,0.1c-0.2,0-0.5,0.1-0.7,0.1s-0.5,0.1-0.7,0.1
				c-0.7,0.1-1.4,0.3-2,0.4c-0.2,0-0.5,0.1-0.8,0.1c-0.8,0.1-1.1,0.2-1.4,0.2c-0.3,0.1-1,0.2-1.6,0.3c-0.2,0-0.5,0.1-0.7,0.1
				c-0.2,0-0.6,0.1-0.9,0.1c-0.3,0-0.7,0.1-0.9,0.1c-0.2,0-0.5,0.1-0.8,0.1c-0.3,0-0.6,0.1-0.9,0.1c-0.2,0-0.6,0.1-0.9,0.1
				c-0.3,0-0.6,0.1-0.8,0.1c-0.9,0.1-1.6,0.3-2.6,0.4c-0.3,0-0.7,0.1-0.9,0.1c-0.4,0.1-1,0.1-2.2,0.3l-0.4,0L264.6,233.6z
				 M162.1,233.1c0-0.1-0.2-0.1-0.3-0.1c-0.4,0-2.5-0.4-4.2-0.7c-0.9-0.2-1.8-0.4-2-0.4s-0.9-0.2-1.5-0.3c-2.9-0.7-3.3-0.8-3.5-0.8
				c-0.1,0-0.5-0.1-0.9-0.2c-0.4-0.1-0.9-0.2-1.1-0.3c-0.2,0-2-0.5-3.9-0.9s-3.6-0.9-3.7-0.9c-0.1,0-0.3-0.1-0.4-0.1
				c-0.1,0-0.3-0.1-0.5-0.1c-0.2,0-0.7-0.2-1.2-0.3c-0.5-0.1-0.9-0.3-0.9-0.2c0,0-0.2,0-0.3-0.1c-0.5-0.2-1.6-0.5-1.6-0.4
				c0,0-0.1,0-0.2-0.1c-0.1-0.1-0.3-0.2-0.5-0.2c-0.2,0-0.4-0.1-0.5-0.1c-0.1-0.1-0.2-0.1-0.2,0c0,0-0.1,0-0.2-0.1
				c-0.1-0.1-0.2-0.1-0.2-0.1c0,0-0.1,0-0.2,0s-0.4-0.2-0.6-0.2c-0.5-0.1-0.8-0.2-0.8-0.2c0,0-0.1,0-0.2-0.1c-0.1,0-0.4-0.1-0.8-0.2
				c-0.3-0.1-0.6-0.2-0.6-0.1c0,0-0.1,0-0.2-0.1c-0.1-0.1-0.2-0.1-0.2-0.1c0,0-0.2-0.1-0.4-0.1c-0.2-0.1-0.5-0.1-0.6-0.1
				s-0.3-0.1-0.4-0.2s-0.2-0.1-0.2,0c0,0.1-0.1,0-0.2-0.1c-0.1-0.1-0.2-0.1-0.2-0.1c0,0.1-0.1,0-0.2-0.1c-0.1-0.1-0.2-0.1-0.2-0.1
				c0,0.1-0.1,0-0.2,0c-0.1-0.1-1-0.4-1.3-0.5c-0.1,0-0.1,0-0.2-0.1c0,0-0.1,0-0.2-0.1c-0.1,0-0.2,0-0.2-0.1c0,0-0.1,0-0.2-0.1
				c-0.1,0-0.2-0.1-0.4-0.2c-0.2-0.1-0.3-0.1-0.3-0.1c0,0-0.1,0-0.3-0.1c-0.2-0.1-0.4-0.2-0.4-0.2c-0.1,0-0.3-0.1-0.4-0.1
				c-0.2-0.1-0.4-0.1-0.4-0.1c-0.1,0-0.3-0.1-1-0.4c-0.2-0.1-0.5-0.2-0.5-0.2c-0.1,0-0.2-0.1-0.4-0.1c-0.2-0.1-0.4-0.1-0.4-0.2
				c0,0-0.2-0.1-0.4-0.2c-0.2-0.1-0.4-0.2-0.4-0.2c0,0-0.3-0.1-0.6-0.3c-0.3-0.1-0.5-0.3-0.6-0.3c-0.1,0-4.8-2.2-5.1-2.5
				c-0.1-0.1-0.2-0.1-0.2,0c0,0.1,0,0-0.1,0c-0.1-0.2-1.2-0.8-1.4-0.7c-0.1,0-0.1,0-0.1-0.1s-0.2-0.2-0.5-0.4
				c-0.3-0.1-0.5-0.3-0.6-0.3c-0.1-0.1-2.1-1.4-2.2-1.4c0,0-0.2-0.1-0.4-0.3c-0.2-0.2-0.4-0.3-0.5-0.3c-0.1,0-0.2-0.1-0.9-0.7
				c-0.3-0.2-0.6-0.5-0.8-0.6c-0.7-0.4-3.5-3.2-3.5-3.4c0-0.1-0.1-0.2-0.3-0.4c-0.2-0.1-0.4-0.5-0.6-0.7c-0.1-0.2-0.3-0.4-0.3-0.4
				s-0.1-0.1-0.1-0.2s-0.1-0.2-0.1-0.2c-0.1,0-0.1-0.1-0.1-0.2s-0.1-0.2-0.1-0.2c-0.1,0-0.1-0.1-0.1-0.2c0-0.1-0.1-0.3-0.2-0.4
				c-0.2-0.2-0.7-1.2-0.6-1.3c0-0.1,0-0.1-0.1-0.1c-0.1,0-0.1,0-0.1-0.1c0,0,0-0.2-0.1-0.3c-0.1-0.1-0.1-0.2-0.1-0.2
				c0,0,0-0.1-0.1-0.3c-0.1-0.2-0.2-0.4-0.2-0.5c0-0.1-0.1-0.3-0.1-0.4c-0.3-0.6-0.4-2.3-0.2-3.5c0.2-1.5,0.2-1.5,0.3-1.7
				c0.1-0.3,0.5-1.6,0.6-1.7c0-0.1,0.6-1.1,0.9-1.6c0.2-0.3,0.4-0.6,0.4-0.8c0-0.1,0.1-0.2,0.2-0.2c0.1,0,0.1-0.1,0.1-0.2
				c0-0.1,0.1-0.2,0.1-0.2c0.1,0,0.1-0.1,0.1-0.1c0-0.1,0.2-0.3,0.4-0.6c1.3-1.4,2.6-2.7,3-3c0.7-0.6,1.1-0.8,1.3-1.1
				c0.1-0.1,0.3-0.2,0.4-0.2s0.2-0.1,0.2-0.2c0-0.1,0.2-0.2,0.2-0.2s0.2-0.1,0.2-0.2c0-0.1,0.2-0.2,0.3-0.2s0.2,0,0.2-0.1
				s0.2-0.2,0.5-0.3c0.3-0.1,0.5-0.3,0.5-0.4s0.1-0.1,0.2-0.1s0.2-0.1,0.2-0.1s0.1-0.1,0.2-0.1c0.1,0,0.2-0.1,0.2-0.1
				s0.1-0.1,0.2-0.1s0.2-0.1,0.2-0.1c0-0.1,0.1-0.1,0.1-0.1c0.1,0,0.2-0.1,0.3-0.1c0.3-0.3,1.2-0.8,2.3-1.4c1.2-0.6,1.3-0.7,1.3-0.1
				c0,0.2,0.1,1,0.2,1.6c0,0.3,0.1,0.5,0.2,0.5c0.1,0,0.1,0.1,0,0.2c-0.2,0.4,1.8,4.7,3.1,6.7c2.8,4.1,7.2,6.7,11.6,8
				c1.1,0.3,1.7,1.2,14,8.8c7.1,4.4,13,8.1,13,8.2c0,0.1,0.1,0.5,0.1,0.8c0.1,1.4,0.2,1.9,0.6,3.3c0.5,1.9,1.2,3.8,2,5.4
				c0.9,1.7,1.9,3.5,2.1,3.5c0.1,0,0.1,0.1,0.1,0.2s0.1,0.2,0.1,0.2c0.1,0,0.1,0.1,0,0.2C162.4,233.2,162.2,233.3,162.1,233.1
				L162.1,233.1z M132.2,203.2c0.1,0,0.2,0,0.3,0C132.5,203.2,132.4,203.3,132.2,203.2C132.1,203.3,132.1,203.2,132.2,203.2
				L132.2,203.2z"/>
			<path id="path3" class="st4" d="M297.9,202.5c-2.3,0.5-2,0.5-15.9,0.6c-12.9,0.1-13.9,0.1-13.7,0.4c0.1,0.2,0.9,3.3,1.3,5.4
				c0.6,3,0.9,6.6,0.8,9.5c0,1.2,0,2,0,1.8c0.1-0.3,2.8-2,13.5-8.7c7.4-4.6,13.6-8.5,13.8-8.6C298.3,202.7,298.3,202.4,297.9,202.5
				L297.9,202.5z M131.7,203.1C131.6,203,131.6,203,131.7,203.1c-0.1,0.1,5.8,3.8,12.9,8.2c12.1,7.5,12.9,8,13,8.4
				c0.1,0.9,0.1,0.2,0.1-2.3c0-2.3,0.1-4.7,0.3-5.7c0-0.1,0.1-0.5,0.1-0.9c0.2-1.2,0.7-3.9,1.1-5.6c0.2-0.9,0.4-1.8,0.3-1.9
				c-0.1-0.2-1.4-0.2-13.9-0.2C138.1,203.1,131.8,203.1,131.7,203.1L131.7,203.1z"/>
			<path id="path2" class="st5" d="M170.5,129.5c-8.6,0.1-18.7,2.7-26.3,6.8c-6.9,3.8-12.8,8.8-17.8,15.2c-1.9,2.3-3.4,4.8-5.5,8.9
				c-2.6,5.1-4.1,9.4-5.1,14.7c-0.1,0.6-0.3,1.2-0.4,1.3c-0.1,0.1-0.6,0.3-1.1,0.5s-1.5,0.7-2.3,1.1c-10,5-17.3,12.4-19,19.4
				c-1.4,5.6-0.1,11.1,3.9,16.4c4.4,5.8,13.1,11.5,24.1,15.8c2.4,0.9,9.9,3.5,12.7,4.3c8,2.4,17.4,4.5,28.5,6.4
				c7.2,1.2,19,2.7,26.7,3.2c7.7,0.6,14,1,17.8,1.2c11.9,0.6,42.1-0.2,68.3-4.8c10.3-1.8,17.2-3.3,24.6-5.5
				c8.7-2.6,14.2-4.7,20.4-7.8c8.3-4.2,13.3-7.7,17-11.9c5.1-5.7,6.7-11,5.2-16.9c-0.7-2.7-1.5-4.4-3.2-6.9c-1.4-2-4.9-5.6-7.2-7.3
				c-4.4-3.4-9.4-6.1-16-8.6c-1.3-0.5-2.4-0.9-2.5-1c-0.1-0.1-0.2-0.4-0.3-0.8c-0.2-0.9-1-3.7-1.5-5.4c-2-6.2-5.6-12.6-10.1-18
				c-1.3-1.6-5-5.2-6.8-6.8c-6.4-5.5-13.8-9.3-22.3-11.6c-1.6-0.4-6.1-1.3-8.3-1.6c-1.9-0.3-2.6-0.3-6.7-0.3c-3.6,0-5,0.1-6.5,0.2
				c-12.9,1.6-23.4,6.3-32.1,14.2c-0.7,0.6-2,1.9-3,2.9c-1,1-1.8,1.8-1.9,1.8c-0.1,0-1.3-1.2-2.8-2.7c-3.6-3.6-6.4-5.8-10.4-8.2
				c-7.9-4.7-16.7-7.4-26.6-8.1C173,129.5,171.8,129.5,170.5,129.5L170.5,129.5z M252.5,139.4c0.1,0,0.1,3.7,0.1,8.1
				c0,9.2-0.1,8.6,1.2,9.8c1.4,1.3,3.2,1.8,4.9,1.2c1.5-0.5,2.6-1.5,3.1-2.5c0.1-0.3,0.2-2.2,0.2-7.9c0-4.1,0-7.7-0.1-8
				c-0.1-0.7,0-0.7,1.1,0c2.5,1.5,4.7,3.9,6.1,6.7c1.1,2.3,2,5.2,2.1,7.4c0.1,1.3,0.1,1.6,0.5,2.2c0.5,0.9,1.3,1.7,2.3,2.1
				c0.7,0.3,0.9,0.3,2.1,0.3c1.3,0,1.4,0,2.3-0.4c1.2-0.6,2.3-1.7,2.7-2.7c0.3-0.9,0.4-2.2,0.1-3.5c-0.2-1.1-1-3.1-1.6-4.2
				c-0.6-1.1-2.1-3.1-2.8-3.9c-0.4-0.4-0.6-0.7-0.6-0.8c0-0.4,3.4,0.8,5.7,1.9c6.4,3.3,12.8,9.3,16.9,15.8c3.5,5.7,5.3,12,5.6,19
				c0.1,3.7-0.3,6.2-1.5,8.6c-1.4,2.9-3.4,4.5-6.3,5.2c-0.6,0.1-4,0.2-15.1,0.2c-7.9,0-14.9,0-15.5,0c-1.2,0-1.2-0.1-1.4-0.4
				c-1.9-3.1-5.1-7.3-7.9-10.4c-3-3.2-8.2-7.5-13.1-10.9c-0.9-0.6-1.7-1.2-1.7-1.2c0-0.1,0.7-0.4,1.1-0.4c0.2,0,0.9,0.2,1.6,0.5
				c1.1,0.4,1.3,0.5,2.4,0.4c0.9,0,1.3-0.1,1.8-0.4c1.5-0.8,2.2-1.8,2.1-3c-0.2-1.5-1.8-3.4-3.9-4.4c-1.8-0.9-2.6-1.1-4.2-1.1
				c-2.7,0-4.8,0.9-6.9,2.8c-0.6,0.6-1.7,2-1.7,2.2c0,0.3-0.4,0.3-1.8-0.2c-5-1.6-9.3-2.3-16.7-2.9c-0.8-0.1-0.9-0.1-0.7-0.5
				c0.1-0.1,0.5-0.9,0.9-1.7c0.8-1.6,1.4-2.5,2.2-3.9c4.8-7.4,12.6-13.6,19.4-15.5c0.7-0.2,1.3-0.3,1.4-0.3c0.3,0,0.2,0.3-0.4,0.9
				c-1.4,1.6-3.1,4.7-4,7.1c-0.4,1.1-0.4,1.4-0.4,2.9c0,1.5,0,1.7,0.3,2.3c0.4,0.8,1.6,1.9,2.6,2.4c0.7,0.3,0.9,0.4,2.1,0.4
				c1.3,0,1.4,0,2.2-0.4c1-0.6,1.7-1.2,2.1-1.8c0.3-0.5,0.3-0.6,0.4-2.3c0.1-1.8,0.1-1.9,0.8-4.1c1.3-3.7,2.2-5.5,4-7.5
				C249.7,141.2,252.2,139.2,252.5,139.4L252.5,139.4z M176.6,139.5c0.5,0.1,2.4,1.4,3.8,2.8c2.2,2.2,3.8,4.9,4.9,8.3
				c0.6,1.8,0.7,2.2,0.7,3.6c0,1.2,0.1,1.4,0.4,2.1c0.5,0.9,1.5,2,2.3,2.3c0.5,0.2,0.9,0.3,2.1,0.3c1.3,0,1.5,0,2.2-0.4
				c0.4-0.2,1-0.6,1.3-0.9c1.1-1.1,1.5-2.3,1.3-4.1c-0.4-3.1-2-6.6-4.2-9.4c-0.8-1-1-1.4-0.7-1.3c0.1,0,0.7,0.3,1.4,0.6
				c3.4,1.4,7.8,3.9,10.2,5.9c2,1.6,6,5.6,6.4,6.3c0.1,0.2,0.1,0.3,0,0.6c-0.4,0.7-2.8,5-4,7.4l-1,2l-1.1,0.2
				c-0.6,0.1-2.2,0.5-3.7,0.8c-1.4,0.4-2.9,0.7-3.2,0.8c-0.5,0.1-0.6,0.1-0.6,0c-0.2-0.7-1.9-2.7-2.9-3.3c-1.7-1.2-3.4-1.6-5.6-1.5
				c-2.2,0.1-4.3,1-5.9,2.7c-2.2,2.2-2.3,4.7-0.1,5.7c1,0.5,2.5,0.6,3.8,0.2c0.8-0.3,1.3-0.3,1.3,0c0,0.1-0.8,0.6-1.8,1.3
				c-1,0.6-2.4,1.6-3.1,2c-2.2,1.4-4.7,3.6-7.4,6.2c-2.8,2.8-4.1,4.3-6.1,7c-1.6,2.1-2.6,3.7-3.4,5.1c-0.5,0.9-0.5,1-1.1,1
				c-0.9,0.1-30,0.1-30.7-0.1c-1.8-0.3-3.6-1.3-5-2.8c-2.1-2.3-3.1-5.2-3.1-8.8c0-4.5,1.4-10.4,3.7-15.7c1.9-4.5,4.8-9,8.3-12.8
				c4.4-4.9,10-8.6,15.4-10.5c0.6-0.2,1.1-0.4,1.1-0.4c0.2,0,0,0.5-0.4,1c-0.7,1-1.9,3.1-2.5,4.5c-1.3,2.8-1.6,5.8-0.9,7.3
				c1.5,3.2,5.6,4,8,1.6c1.2-1.1,1.3-1.4,1.4-3.3c0.1-1,0.2-2.2,0.4-2.9c0.8-3.4,2.9-7.4,4.9-9.4c1.1-1.1,3.4-2.7,3.6-2.6
				c0,0,0.1,3.7,0.1,8.2l0.1,8.1l0.4,0.6c0.5,0.8,1.2,1.5,2.1,2c0.7,0.4,0.8,0.4,2.1,0.4c1.2,0,1.5,0,2.1-0.4c0.9-0.4,2-1.4,2.4-2.2
				c0.2-0.5,0.3-1,0.3-8.5c0-4.4,0-8.1,0.1-8.2C176.5,139.5,176.5,139.5,176.6,139.5L176.6,139.5z M281.9,162.7
				c-1.1,0-1.6,0.1-2.4,0.4c-1.8,0.6-2.8,1.2-4,2.4c-1.9,1.9-2.4,3.3-1.6,4.6c0.6,0.9,1.5,1.5,2.6,1.8c0.4,0.1,0.8,0.2,1,0.2
				c0.5,0,1.7-0.3,2.7-0.8c1.6-0.8,1.8-0.7,3.5,0.1c1.4,0.7,1.5,0.7,2.8,0.8c1.2,0,1.3,0,2-0.3c0.7-0.4,1.5-1.2,1.8-1.8
				c0.3-0.7,0.2-1.3-0.4-2.5c-0.8-1.6-2.4-3.2-3.9-3.9C284.6,162.8,283.7,162.7,281.9,162.7L281.9,162.7z M148,162.7
				c-0.5,0-0.9,0.1-1.3,0.2c-3.4,0.9-6.7,4.4-6.3,6.7c0.2,0.8,1.4,2,2.4,2.2c1.2,0.3,2.2,0.1,4.1-0.7c0.7-0.4,1.5-0.7,1.6-0.7
				s0.9,0.3,1.6,0.7c1.4,0.7,1.4,0.7,2.6,0.7c0.9,0,1.3-0.1,1.8-0.3c1.4-0.6,2.5-2.1,2.3-3.1c-0.2-1.8-2.2-3.9-4.6-5.1
				C151,162.9,149.4,162.6,148,162.7L148,162.7z M208.9,174.5c0.1,0,0.2,2,0.2,7.8c0,5.3,0,8,0.1,8.4c0.2,0.6,1.5,2,2.4,2.4
				c2.4,1.2,5.5,0.1,6.6-2.2l0.4-0.7l0-7.8c0-5.9,0.1-7.8,0.2-7.8c0.1,0,0.5,0.2,0.9,0.5c3.2,1.9,5.4,4.8,7.1,9.3
				c0.7,1.9,0.9,2.7,1.1,4.3c0.2,1.7,0.6,2.5,1.6,3.4c1.3,1.2,3,1.7,4.6,1.3c1.6-0.4,3-1.5,3.6-2.8c0.4-0.8,0.4-2.3,0-3.7
				c-0.4-1.4-1.8-4.2-2.8-5.7c-1.6-2.2-1.6-2.3-0.5-1.9c3.8,1.5,6.8,3,9.1,4.6c2.4,1.7,3.3,2.4,5.5,4.6c6.7,6.6,11.1,15.6,12.2,25
				c0.3,2,0.2,6-0.1,7.5c-0.6,2.8-2.1,5.2-4.1,6.5c-1.2,0.8-1.8,1-3.2,1.1c-1.5,0.2-79,0.1-80.2,0c-1.8-0.2-3.8-1.7-5-3.4
				c-0.7-1.1-1.4-2.8-1.8-4.3c-0.3-1.1-0.3-1.6-0.3-4.5c0-3.7,0.1-4.3,1.2-8.6c0.7-2.8,1.6-5.2,2.9-7.9c1.5-3,2.3-4.5,4.5-7.4
				c3.9-5.2,8.5-9.2,13.7-11.8c2-1,4.6-2,4.6-1.7c0,0-0.3,0.5-0.7,1.1c-1.6,2.3-2.8,4.9-3.2,6.8c-0.4,2.3,0,3.8,1.3,5
				c1,0.9,1.7,1.2,3,1.3c1.7,0.1,3.2-0.5,4.4-1.8c0.7-0.8,1.1-1.7,1.2-3.4c0.4-3.5,2.6-7.9,5.4-10.8
				C205.6,176.6,208.5,174.5,208.9,174.5L208.9,174.5z M314,182.3c0.8,0,6.6,2.8,9.7,4.8c5.3,3.3,8.4,6,10.4,9.2
				c0.8,1.3,1,1.6,1.4,3c0.3,0.9,0.3,1.3,0.3,2.4c0,2.4-0.6,4.1-2.1,6.5c-2.2,3.4-6.8,7.2-11.8,10.1c-4.4,2.5-10.8,5.3-15.9,7
				c-4.6,1.5-11.9,3.5-17.4,4.8c-6.3,1.4-17.5,3.4-22.7,4c-0.7,0.1-1.4,0.2-1.5,0.2c-0.5,0.1-0.4-0.2,0.2-0.9
				c1.6-1.9,3.9-5.9,4.6-8.2c1.4-4.3,1.5-10.1,0.3-16.2c-0.4-2.1-1.2-5.1-1.3-5.4c-0.2-0.3,0.7-0.4,13.7-0.4
				c14.4-0.1,13.8,0,16.5-0.7c3.8-1,8.1-4.4,10.9-8.6c1.9-2.9,3.7-7.5,4.2-10.9C313.7,182.4,313.8,182.3,314,182.3L314,182.3z
				 M115.2,184.8c0.2,0.1,0.2,0.4,0.3,1c0.1,1.1,0.9,3.7,1.7,5.2c1.7,3.5,3.8,6.2,6.6,8.3c2.3,1.7,3.8,2.5,6.5,3.3l1.7,0.5h13.8
				c12.5,0,13.8,0,13.9,0.2c0,0.1-0.1,1-0.3,1.9c-0.7,3.1-1.4,6.5-1.5,8.6c-0.1,1.5-0.1,6.1,0.1,7.1c0.6,3.8,2,7.5,4.1,10.7
				c0.4,0.7,0.8,1.3,0.9,1.4c0.1,0.2-0.5,0.2-1.5,0c-0.4-0.1-1.5-0.3-2.5-0.5c-5.2-0.9-16-3.5-22.5-5.4c-8.3-2.4-14-4.5-20-7.5
				c-4.8-2.4-8.7-5.1-11.8-8.1c-2.9-2.9-4.8-6.6-4.8-9.3c0-1.6,0.6-4,1.3-5.4c1.2-2.4,3.4-4.9,6.1-7c2.1-1.7,5.4-3.9,6.8-4.6
				C114.6,185,115,184.8,115.2,184.8L115.2,184.8z M190.7,198.5c-1.8,0.1-3.5,0.8-5,2c-1.9,1.6-2.9,3.7-2.4,5.2
				c0.2,0.7,1.4,1.7,2.3,2c1.3,0.4,2.3,0.2,4.1-0.6c0.7-0.3,1.3-0.5,1.5-0.5c0.2,0,0.8,0.2,1.4,0.5c1.4,0.6,2.4,0.7,3.8,0.3
				c1.7-0.6,2.9-1.8,2.7-3.1c-0.4-2.5-3.4-5.1-6.5-5.7C191.9,198.5,191.3,198.5,190.7,198.5L190.7,198.5z M232.6,198.5
				c-2.3,0-4.2,0.9-6.1,2.7c-2.5,2.5-2.4,4.5,0.4,6c0.6,0.3,0.8,0.4,2,0.4c1.2,0,1.4,0,2.4-0.5c0.6-0.3,1.3-0.5,1.5-0.5
				c0.2,0,0.8,0.2,1.4,0.5s1.3,0.5,1.5,0.6c0.8,0.2,1.2,0.2,2-0.1c1.3-0.4,2.3-1.3,2.6-2.2c0.6-1.8-1.2-4.5-4.1-5.9
				C235.2,198.8,234,198.5,232.6,198.5z"/>
		</g>
	</g>
	<g>
		<path d="M316.3,49.6c0,8.3-2.1,14.8-6.2,19.2c-4.1,4.5-10.1,6.7-17.8,6.7c-7.7,0-13.7-2.2-17.8-6.7c-4.1-4.5-6.2-10.9-6.2-19.3
			s2.1-14.8,6.2-19.2c4.1-4.4,10.1-6.6,17.8-6.6c7.7,0,13.7,2.2,17.8,6.7C314.3,34.8,316.3,41.2,316.3,49.6z M279.6,49.6
			c0,5.6,1.1,9.9,3.2,12.7c2.1,2.8,5.3,4.3,9.6,4.3c8.5,0,12.8-5.7,12.8-17c0-11.4-4.2-17-12.7-17c-4.3,0-7.5,1.4-9.6,4.3
			C280.6,39.7,279.6,43.9,279.6,49.6z"/>
		<path d="M347.1,75.5c-4.5,0-8.1-1.6-10.7-4.9h-0.6c0.4,3.2,0.6,5.1,0.6,5.6v15.6H326V36.3h8.5l1.5,5h0.5c2.5-3.8,6.1-5.7,10.9-5.7
			c4.6,0,8.1,1.8,10.7,5.3c2.6,3.5,3.9,8.4,3.9,14.6c0,4.1-0.6,7.7-1.8,10.7c-1.2,3-2.9,5.3-5.2,6.9
			C352.8,74.7,350.1,75.5,347.1,75.5z M344,44c-2.6,0-4.5,0.8-5.7,2.4c-1.2,1.6-1.8,4.2-1.9,7.9v1.1c0,4.1,0.6,7.1,1.8,8.9
			c1.2,1.8,3.2,2.7,5.8,2.7c4.7,0,7.1-3.9,7.1-11.7c0-3.8-0.6-6.6-1.7-8.5C348.3,44.9,346.5,44,344,44z"/>
		<path d="M388.1,75.5c-6.2,0-11.1-1.7-14.5-5.1c-3.5-3.4-5.2-8.3-5.2-14.5c0-6.5,1.6-11.4,4.8-15c3.2-3.5,7.7-5.3,13.4-5.3
			c5.4,0,9.7,1.6,12.7,4.7c3,3.1,4.6,7.4,4.6,12.9v5.1h-24.9c0.1,3,1,5.3,2.7,7c1.7,1.7,4,2.5,7,2.5c2.3,0,4.5-0.2,6.6-0.7
			c2.1-0.5,4.2-1.3,6.5-2.3v8.1c-1.8,0.9-3.8,1.6-5.9,2.1C393.6,75.3,391.1,75.5,388.1,75.5z M386.6,43.1c-2.2,0-4,0.7-5.2,2.1
			c-1.3,1.4-2,3.4-2.2,6h14.8c0-2.6-0.7-4.6-2-6C390.6,43.8,388.8,43.1,386.6,43.1z"/>
		<path d="M447.9,74.8h-10.5V52.3c0-2.8-0.5-4.9-1.5-6.3c-1-1.4-2.6-2.1-4.7-2.1c-2.9,0-5.1,1-6.4,2.9c-1.3,2-2,5.2-2,9.8v18.1
			h-10.5V36.3h8l1.4,4.9h0.6c1.2-1.9,2.8-3.3,4.8-4.2c2.1-1,4.4-1.4,7-1.4c4.5,0,7.9,1.2,10.2,3.6c2.3,2.4,3.5,5.9,3.5,10.5V74.8z"
			/>
		<path d="M459.6,24.4h15.7c7.1,0,12.3,1,15.6,3.1s4.8,5.3,4.8,9.7c0,3-0.7,5.5-2.1,7.4c-1.4,1.9-3.3,3.1-5.6,3.5v0.3
			c3.2,0.7,5.5,2,6.9,4c1.4,2,2.1,4.6,2.1,7.8c0,4.6-1.7,8.2-5,10.8c-3.3,2.6-7.8,3.9-13.5,3.9h-18.9V24.4z M470.3,44.4h6.2
			c2.9,0,5-0.4,6.3-1.3c1.3-0.9,1.9-2.4,1.9-4.4c0-1.9-0.7-3.3-2.1-4.2c-1.4-0.8-3.6-1.3-6.7-1.3h-5.6V44.4z M470.3,52.9V66h7
			c2.9,0,5.1-0.6,6.5-1.7c1.4-1.1,2.1-2.8,2.1-5.2c0-4.2-3-6.3-9-6.3H470.3z"/>
		<path d="M530.7,74.8l-2-5.2h-0.3c-1.8,2.2-3.6,3.8-5.5,4.6s-4.3,1.3-7.3,1.3c-3.7,0-6.6-1.1-8.7-3.2c-2.1-2.1-3.2-5.1-3.2-9
			c0-4.1,1.4-7.1,4.3-9c2.9-1.9,7.2-3,12.9-3.2l6.7-0.2v-1.7c0-3.9-2-5.9-6-5.9c-3.1,0-6.7,0.9-10.9,2.8l-3.5-7.1
			c4.4-2.3,9.4-3.5,14.8-3.5c5.2,0,9.1,1.1,11.9,3.4c2.8,2.3,4.1,5.7,4.1,10.3v25.7H530.7z M527.5,57l-4.1,0.1
			c-3.1,0.1-5.3,0.6-6.8,1.7c-1.5,1-2.2,2.6-2.2,4.6c0,3,1.7,4.4,5.1,4.4c2.4,0,4.4-0.7,5.8-2.1c1.5-1.4,2.2-3.3,2.2-5.6V57z"/>
		<path d="M583.8,55.5c0,6.3-1.7,11.2-5,14.7c-3.3,3.5-7.9,5.3-13.8,5.3c-3.7,0-7-0.8-9.8-2.4c-2.8-1.6-5-3.9-6.5-7
			c-1.5-3-2.3-6.6-2.3-10.6c0-6.3,1.6-11.2,4.9-14.7c3.3-3.5,7.9-5.2,13.9-5.2c3.7,0,7,0.8,9.8,2.4c2.8,1.6,5,3.9,6.5,6.9
			C583.1,47.9,583.8,51.5,583.8,55.5z M557.2,55.5c0,3.8,0.6,6.7,1.9,8.7c1.3,2,3.3,2.9,6.1,2.9c2.8,0,4.8-1,6-2.9
			c1.2-1.9,1.8-4.8,1.8-8.7c0-3.8-0.6-6.7-1.9-8.6c-1.2-1.9-3.3-2.9-6.1-2.9c-2.8,0-4.8,0.9-6.1,2.8
			C557.8,48.8,557.2,51.7,557.2,55.5z"/>
	</g>
</g>
</svg>
